<?xml version="1.0" encoding="UTF-8"?><svg id="Layer_2" xmlns="http://www.w3.org/2000/svg" viewBox="0 0 105.29 41.89"><defs><style>.cls-1{fill:#0041e2;}</style></defs><g id="Layer_1-2"><g><path class="cls-1" d="M48.34,1.36c-1.95-.91-4.29-1.36-7.01-1.36h-11.74V32.35h7.21v-9.19h4.53c2.73,0,5.06-.45,7.01-1.36,1.95-.91,3.44-2.2,4.48-3.89,1.04-1.68,1.56-3.67,1.56-5.96v-.7c0-2.31-.52-4.31-1.56-6-1.04-1.68-2.53-2.98-4.48-3.89Zm-1.93,13.03c-.43,.81-1.04,1.43-1.85,1.87-.81,.44-1.77,.66-2.88,.66h-4.88V6.24h4.88c1.11,0,2.07,.22,2.88,.66s1.42,1.06,1.85,1.87c.42,.81,.64,1.75,.64,2.84s-.21,1.99-.64,2.79Z"/><path class="cls-1" d="M73.18,8.92c-1.69-.7-3.76-1.05-6.22-1.05-.85,0-1.76,.02-2.73,.04-.97,.03-1.91,.07-2.81,.13-.91,.06-1.71,.12-2.42,.18v5.93c.91-.06,1.93-.11,3.06-.15,1.13-.04,2.22-.08,3.27-.11,1.05-.03,1.9-.04,2.55-.04,1.29,0,2.23,.3,2.81,.9,.59,.6,.88,1.53,.88,2.79v.04h-4.35c-2.14,0-4.03,.27-5.67,.81-1.64,.54-2.92,1.38-3.82,2.51-.91,1.13-1.36,2.57-1.36,4.33,0,1.61,.37,3,1.1,4.15,.73,1.16,1.75,2.04,3.05,2.66,1.3,.62,2.82,.92,4.55,.92s3.08-.31,4.24-.92c1.16-.62,2.07-1.49,2.73-2.64,.3-.51,.53-1.09,.73-1.71v4.65h5.58v-14.77c0-2.23-.44-4.05-1.32-5.47-.88-1.42-2.16-2.48-3.85-3.19Zm-3.87,18.75c-.63,.28-1.34,.42-2.13,.42-1.23,0-2.18-.3-2.84-.9-.66-.6-.99-1.38-.99-2.35,0-1.03,.33-1.84,.99-2.44,.66-.6,1.6-.9,2.84-.9h4.4v1.93c-.06,1.2-.29,2.14-.7,2.81-.41,.67-.93,1.15-1.56,1.43Z"/><path class="cls-1" d="M98.56,8.26l-4.32,18.07h-.87l-5.36-18.07h-7.12l7.43,23.56h4.6l-.25,1.06c-.21,.76-.47,1.36-.79,1.8-.32,.44-.75,.75-1.28,.95-.53,.19-1.17,.29-1.93,.29h-5.01v5.98h4.31c2.14,0,3.9-.24,5.3-.7,1.39-.47,2.51-1.27,3.34-2.4,.84-1.13,1.49-2.63,1.96-4.51l6.72-26.02h-6.72Z"/><path class="cls-1" d="M15.09,22.92c0,2.37-1.22,3.89-3.36,3.89s-3.36-1.52-3.36-3.89V8.26H.65v13.63c0,7.01,4.74,11.08,11.08,11.08s11.08-4.06,11.08-11.08V8.26h-7.72v14.65Z"/><path class="cls-1" d="M.32,1.34c.26,.97,.59,1.72,1,2.28,.41,.56,.95,.96,1.62,1.2,.67,.24,1.49,.36,2.45,.36h12.7c.96,0,1.78-.12,2.45-.36,.67-.24,1.2-.64,1.62-1.2,.41-.56,.74-1.32,1-2.28l.32-1.34H0L.32,1.34Z"/></g></g></svg>